<svg width="130" height="30" viewBox="0 0 130 30" fill="none" xmlns="http://www.w3.org/2000/svg">
<path d="M5.05609 12.64H18.9761V16.92H5.05609V12.64ZM5.45609 24.64H21.2561V29H0.256094V0.999998H20.6961V5.36H5.45609V24.64ZM23.3405 29L35.1405 12.76V16.68L23.9005 0.999998H29.7805L38.1405 12.6L35.7405 12.64L44.0205 0.999998H49.6605L38.5005 16.4V12.64L50.3805 29H44.3805L35.5805 16.68H37.9405L29.2605 29H23.3405ZM66.4192 29.4C64.2859 29.4 62.2992 29.0533 60.4592 28.36C58.6459 27.64 57.0592 26.64 55.6992 25.36C54.3659 24.0533 53.3259 22.52 52.5792 20.76C51.8326 19 51.4592 17.08 51.4592 15C51.4592 12.92 51.8326 11 52.5792 9.24C53.3259 7.48 54.3792 5.96 55.7392 4.68C57.0992 3.37333 58.6859 2.37333 60.4992 1.68C62.3126 0.959999 64.2992 0.599998 66.4592 0.599998C68.7526 0.599998 70.8459 0.999999 72.7392 1.8C74.6326 2.57333 76.2326 3.73333 77.5392 5.28L74.1792 8.44C73.1659 7.34667 72.0326 6.53333 70.7792 6C69.5259 5.44 68.1659 5.16 66.6992 5.16C65.2326 5.16 63.8859 5.4 62.6592 5.88C61.4592 6.36 60.4059 7.04 59.4992 7.92C58.6192 8.8 57.9259 9.84 57.4192 11.04C56.9392 12.24 56.6992 13.56 56.6992 15C56.6992 16.44 56.9392 17.76 57.4192 18.96C57.9259 20.16 58.6192 21.2 59.4992 22.08C60.4059 22.96 61.4592 23.64 62.6592 24.12C63.8859 24.6 65.2326 24.84 66.6992 24.84C68.1659 24.84 69.5259 24.5733 70.7792 24.04C72.0326 23.48 73.1659 22.64 74.1792 21.52L77.5392 24.72C76.2326 26.24 74.6326 27.4 72.7392 28.2C70.8459 29 68.7392 29.4 66.4192 29.4ZM87.3217 12.64H101.242V16.92H87.3217V12.64ZM87.7217 24.64H103.522V29H82.5217V0.999998H102.962V5.36H87.7217V24.64ZM109.319 29V0.999998H114.519V24.6H129.159V29H109.319Z" fill="#008739"/>
</svg>
